<?xml version="1.0" encoding="UTF-8" standalone="no"?>
<!DOCTYPE svg PUBLIC "-//W3C//DTD SVG 1.1//EN"
 "http://www.w3.org/Graphics/SVG/1.1/DTD/svg11.dtd">
<!-- Generated by graphviz version 2.40.1 (20161225.0304)
 -->
<!-- Title: dependencies Pages: 1 -->
<svg width="588pt" height="211pt"
 viewBox="0.00 0.00 588.00 211.00" xmlns="http://www.w3.org/2000/svg" xmlns:xlink="http://www.w3.org/1999/xlink">
<g id="graph0" class="graph" transform="scale(1 1) rotate(0) translate(4 207)">
<title>dependencies</title>
<polygon fill="#ffffff" stroke="transparent" points="-4,4 -4,-207 584,-207 584,4 -4,4"/>
<text text-anchor="start" x="269.0091" y="-42.4" font-family="sans-serif" font-weight="bold" font-size="14.00" fill="#000000">Legend</text>
<polygon fill="#ffffb3" stroke="transparent" points="56,-10 56,-30 76,-30 76,-10 56,-10"/>
<text text-anchor="start" x="79.629" y="-15.4" font-family="sans-serif" font-size="14.00" fill="#000000"> &#160;Declarations</text>
<polygon fill="#8dd3c7" stroke="transparent" points="169,-10 169,-30 189,-30 189,-10 169,-10"/>
<text text-anchor="start" x="192.7251" y="-15.4" font-family="sans-serif" font-size="14.00" fill="#000000"> &#160;Module</text>
<polygon fill="#80b1d3" stroke="transparent" points="255,-10 255,-30 275,-30 275,-10 255,-10"/>
<text text-anchor="start" x="278.7812" y="-15.4" font-family="sans-serif" font-size="14.00" fill="#000000"> &#160;Bootstrap</text>
<polygon fill="#fdb462" stroke="transparent" points="352,-10 352,-30 372,-30 372,-10 352,-10"/>
<text text-anchor="start" x="375.6732" y="-15.4" font-family="sans-serif" font-size="14.00" fill="#000000"> &#160;Providers</text>
<polygon fill="#fb8072" stroke="transparent" points="448,-10 448,-30 468,-30 468,-10 448,-10"/>
<text text-anchor="start" x="471.7258" y="-15.4" font-family="sans-serif" font-size="14.00" fill="#000000"> &#160;Exports</text>
<g id="clust1" class="cluster">
<title>cluster_MapModule</title>
<polygon fill="none" stroke="#000000" stroke-dasharray="1,5" points="8,-70 8,-195 572,-195 572,-70 8,-70"/>
</g>
<g id="clust2" class="cluster">
<title>cluster_MapModule_declarations</title>
<polygon fill="none" stroke="#000000" points="286,-78 286,-130 564,-130 564,-78 286,-78"/>
</g>
<g id="clust5" class="cluster">
<title>cluster_MapModule_imports</title>
<polygon fill="none" stroke="#000000" points="16,-78 16,-130 278,-130 278,-78 16,-78"/>
</g>
<!-- MapViewComponent -->
<g id="node1" class="node">
<title>MapViewComponent</title>
<polygon fill="#ffffb3" stroke="#000000" points="555.8104,-122 418.1896,-122 418.1896,-86 555.8104,-86 555.8104,-122"/>
<text text-anchor="middle" x="487" y="-99.8" font-family="Times,serif" font-size="14.00" fill="#000000">MapViewComponent</text>
</g>
<!-- MapModule -->
<g id="node3" class="node">
<title>MapModule</title>
<polygon fill="#8dd3c7" stroke="#000000" points="326.7093,-187 323.7093,-191 302.7093,-191 299.7093,-187 241.2907,-187 241.2907,-151 326.7093,-151 326.7093,-187"/>
<text text-anchor="middle" x="284" y="-164.8" font-family="Times,serif" font-size="14.00" fill="#000000">MapModule</text>
</g>
<!-- MapViewComponent&#45;&gt;MapModule -->
<g id="edge1" class="edge">
<title>MapViewComponent&#45;&gt;MapModule</title>
<path fill="none" stroke="#000000" d="M487,-122.1061C487,-141.3391 487,-169 487,-169 487,-169 337.0511,-169 337.0511,-169"/>
<polygon fill="#000000" stroke="#000000" points="337.0511,-165.5001 327.0511,-169 337.051,-172.5001 337.0511,-165.5001"/>
</g>
<!-- MapComponent -->
<g id="node2" class="node">
<title>MapComponent</title>
<polygon fill="#ffffb3" stroke="#000000" points="400.4916,-122 293.5084,-122 293.5084,-86 400.4916,-86 400.4916,-122"/>
<text text-anchor="middle" x="347" y="-99.8" font-family="Times,serif" font-size="14.00" fill="#000000">MapComponent</text>
</g>
<!-- MapComponent&#45;&gt;MapModule -->
<g id="edge2" class="edge">
<title>MapComponent&#45;&gt;MapModule</title>
<path fill="none" stroke="#000000" d="M310.0544,-122.1061C310.0544,-122.1061 310.0544,-140.991 310.0544,-140.991"/>
<polygon fill="#000000" stroke="#000000" points="306.5544,-140.9909 310.0544,-150.991 313.5544,-140.991 306.5544,-140.9909"/>
</g>
<!-- SharedModule -->
<g id="node4" class="node">
<title>SharedModule</title>
<polygon fill="#8dd3c7" stroke="#000000" points="270.4231,-122 267.4231,-126 246.4231,-126 243.4231,-122 171.5769,-122 171.5769,-86 270.4231,-86 270.4231,-122"/>
<text text-anchor="middle" x="221" y="-99.8" font-family="Times,serif" font-size="14.00" fill="#000000">SharedModule</text>
</g>
<!-- SharedModule&#45;&gt;MapModule -->
<g id="edge3" class="edge">
<title>SharedModule&#45;&gt;MapModule</title>
<path fill="none" stroke="#000000" d="M255.8033,-122.1061C255.8033,-122.1061 255.8033,-140.991 255.8033,-140.991"/>
<polygon fill="#000000" stroke="#000000" points="252.3034,-140.9909 255.8033,-150.991 259.3034,-140.991 252.3034,-140.9909"/>
</g>
<!-- MapRoutingModule -->
<g id="node5" class="node">
<title>MapRoutingModule</title>
<polygon fill="#8dd3c7" stroke="#000000" points="154.3272,-122 151.3272,-126 130.3272,-126 127.3272,-122 23.6728,-122 23.6728,-86 154.3272,-86 154.3272,-122"/>
<text text-anchor="middle" x="89" y="-99.8" font-family="Times,serif" font-size="14.00" fill="#000000">MapRoutingModule</text>
</g>
<!-- MapRoutingModule&#45;&gt;MapModule -->
<g id="edge4" class="edge">
<title>MapRoutingModule&#45;&gt;MapModule</title>
<path fill="none" stroke="#000000" d="M89,-122.1061C89,-141.3391 89,-169 89,-169 89,-169 231.2064,-169 231.2064,-169"/>
<polygon fill="#000000" stroke="#000000" points="231.2065,-172.5001 241.2064,-169 231.2064,-165.5001 231.2065,-172.5001"/>
</g>
</g>
</svg>
