<?xml version="1.0" encoding="UTF-8" standalone="no"?>
<!DOCTYPE svg PUBLIC "-//W3C//DTD SVG 1.1//EN"
 "http://www.w3.org/Graphics/SVG/1.1/DTD/svg11.dtd">
<!-- Generated by graphviz version 2.40.1 (20161225.0304)
 -->
<!-- Title: dependencies Pages: 1 -->
<svg width="504pt" height="284pt"
 viewBox="0.00 0.00 504.00 284.00" xmlns="http://www.w3.org/2000/svg" xmlns:xlink="http://www.w3.org/1999/xlink">
<g id="graph0" class="graph" transform="scale(1 1) rotate(0) translate(4 280)">
<title>dependencies</title>
<polygon fill="#ffffff" stroke="transparent" points="-4,4 -4,-280 500,-280 500,4 -4,4"/>
<text text-anchor="start" x="227.0091" y="-42.4" font-family="sans-serif" font-weight="bold" font-size="14.00" fill="#000000">Legend</text>
<polygon fill="#ffffb3" stroke="transparent" points="14,-10 14,-30 34,-30 34,-10 14,-10"/>
<text text-anchor="start" x="37.629" y="-15.4" font-family="sans-serif" font-size="14.00" fill="#000000"> &#160;Declarations</text>
<polygon fill="#8dd3c7" stroke="transparent" points="127,-10 127,-30 147,-30 147,-10 127,-10"/>
<text text-anchor="start" x="150.7251" y="-15.4" font-family="sans-serif" font-size="14.00" fill="#000000"> &#160;Module</text>
<polygon fill="#80b1d3" stroke="transparent" points="213,-10 213,-30 233,-30 233,-10 213,-10"/>
<text text-anchor="start" x="236.7812" y="-15.4" font-family="sans-serif" font-size="14.00" fill="#000000"> &#160;Bootstrap</text>
<polygon fill="#fdb462" stroke="transparent" points="310,-10 310,-30 330,-30 330,-10 310,-10"/>
<text text-anchor="start" x="333.6732" y="-15.4" font-family="sans-serif" font-size="14.00" fill="#000000"> &#160;Providers</text>
<polygon fill="#fb8072" stroke="transparent" points="406,-10 406,-30 426,-30 426,-10 406,-10"/>
<text text-anchor="start" x="429.7258" y="-15.4" font-family="sans-serif" font-size="14.00" fill="#000000"> &#160;Exports</text>
<g id="clust1" class="cluster">
<title>cluster_SharedModule</title>
<polygon fill="none" stroke="#000000" stroke-dasharray="1,5" points="26,-70 26,-268 470,-268 470,-70 26,-70"/>
</g>
<g id="clust2" class="cluster">
<title>cluster_SharedModule_declarations</title>
<polygon fill="none" stroke="#000000" points="190,-78 190,-130 462,-130 462,-78 190,-78"/>
</g>
<g id="clust5" class="cluster">
<title>cluster_SharedModule_imports</title>
<polygon fill="none" stroke="#000000" points="34,-78 34,-130 182,-130 182,-78 34,-78"/>
</g>
<g id="clust6" class="cluster">
<title>cluster_SharedModule_exports</title>
<polygon fill="none" stroke="#000000" points="86,-208 86,-260 410,-260 410,-208 86,-208"/>
</g>
<!-- ViewHeaderComponent -->
<g id="node1" class="node">
<title>ViewHeaderComponent</title>
<polygon fill="#ffffb3" stroke="#000000" points="454.0618,-122 301.9382,-122 301.9382,-86 454.0618,-86 454.0618,-122"/>
<text text-anchor="middle" x="378" y="-99.8" font-family="Times,serif" font-size="14.00" fill="#000000">ViewHeaderComponent</text>
</g>
<!-- SharedModule -->
<g id="node3" class="node">
<title>SharedModule</title>
<polygon fill="#8dd3c7" stroke="#000000" points="290.4231,-187 287.4231,-191 266.4231,-191 263.4231,-187 191.5769,-187 191.5769,-151 290.4231,-151 290.4231,-187"/>
<text text-anchor="middle" x="241" y="-164.8" font-family="Times,serif" font-size="14.00" fill="#000000">SharedModule</text>
</g>
<!-- ViewHeaderComponent&#45;&gt;SharedModule -->
<g id="edge1" class="edge">
<title>ViewHeaderComponent&#45;&gt;SharedModule</title>
<path fill="none" stroke="#000000" d="M352.1289,-122.1061C352.1289,-141.3391 352.1289,-169 352.1289,-169 352.1289,-169 300.3899,-169 300.3899,-169"/>
<polygon fill="#000000" stroke="#000000" points="300.3899,-165.5001 290.3899,-169 300.3899,-172.5001 300.3899,-165.5001"/>
</g>
<!-- CapitalsPipe -->
<g id="node2" class="node">
<title>CapitalsPipe</title>
<polygon fill="#ffffb3" stroke="#000000" points="284.2703,-122 197.7297,-122 197.7297,-86 284.2703,-86 284.2703,-122"/>
<text text-anchor="middle" x="241" y="-99.8" font-family="Times,serif" font-size="14.00" fill="#000000">CapitalsPipe</text>
</g>
<!-- CapitalsPipe&#45;&gt;SharedModule -->
<g id="edge2" class="edge">
<title>CapitalsPipe&#45;&gt;SharedModule</title>
<path fill="none" stroke="#000000" d="M241,-122.1061C241,-122.1061 241,-140.991 241,-140.991"/>
<polygon fill="#000000" stroke="#000000" points="237.5001,-140.9909 241,-150.991 244.5001,-140.991 237.5001,-140.9909"/>
</g>
<!-- AppMaterialModule  -->
<g id="node5" class="node">
<title>AppMaterialModule </title>
<polygon fill="#fb8072" stroke="#000000" points="402.0779,-252 267.9221,-252 267.9221,-216 402.0779,-216 402.0779,-252"/>
<text text-anchor="middle" x="335" y="-229.8" font-family="Times,serif" font-size="14.00" fill="#000000">AppMaterialModule </text>
</g>
<!-- SharedModule&#45;&gt;AppMaterialModule  -->
<g id="edge4" class="edge">
<title>SharedModule&#45;&gt;AppMaterialModule </title>
<path fill="none" stroke="#000000" stroke-dasharray="5,2" d="M278.9613,-187.1061C278.9613,-187.1061 278.9613,-205.991 278.9613,-205.991"/>
<polygon fill="#000000" stroke="#000000" points="275.4613,-205.9909 278.9613,-215.991 282.4613,-205.991 275.4613,-205.9909"/>
</g>
<!-- ViewHeaderComponent  -->
<g id="node6" class="node">
<title>ViewHeaderComponent </title>
<polygon fill="#fb8072" stroke="#000000" points="249.5624,-252 94.4376,-252 94.4376,-216 249.5624,-216 249.5624,-252"/>
<text text-anchor="middle" x="172" y="-229.8" font-family="Times,serif" font-size="14.00" fill="#000000">ViewHeaderComponent </text>
</g>
<!-- SharedModule&#45;&gt;ViewHeaderComponent  -->
<g id="edge5" class="edge">
<title>SharedModule&#45;&gt;ViewHeaderComponent </title>
<path fill="none" stroke="#000000" stroke-dasharray="5,2" d="M220.7849,-187.1061C220.7849,-187.1061 220.7849,-205.991 220.7849,-205.991"/>
<polygon fill="#000000" stroke="#000000" points="217.285,-205.9909 220.7849,-215.991 224.285,-205.991 217.285,-205.9909"/>
</g>
<!-- AppMaterialModule -->
<g id="node4" class="node">
<title>AppMaterialModule</title>
<polygon fill="#8dd3c7" stroke="#000000" points="173.5772,-122 170.5772,-126 149.5772,-126 146.5772,-122 42.4228,-122 42.4228,-86 173.5772,-86 173.5772,-122"/>
<text text-anchor="middle" x="108" y="-99.8" font-family="Times,serif" font-size="14.00" fill="#000000">AppMaterialModule</text>
</g>
<!-- AppMaterialModule&#45;&gt;SharedModule -->
<g id="edge3" class="edge">
<title>AppMaterialModule&#45;&gt;SharedModule</title>
<path fill="none" stroke="#000000" d="M133.8789,-122.1061C133.8789,-141.3391 133.8789,-169 133.8789,-169 133.8789,-169 181.5157,-169 181.5157,-169"/>
<polygon fill="#000000" stroke="#000000" points="181.5158,-172.5001 191.5157,-169 181.5157,-165.5001 181.5158,-172.5001"/>
</g>
</g>
</svg>
