<?xml version="1.0" encoding="UTF-8" standalone="no"?>
<!DOCTYPE svg PUBLIC "-//W3C//DTD SVG 1.1//EN"
 "http://www.w3.org/Graphics/SVG/1.1/DTD/svg11.dtd">
<!-- Generated by graphviz version 2.40.1 (20161225.0304)
 -->
<!-- Title: dependencies Pages: 1 -->
<svg width="1070pt" height="211pt"
 viewBox="0.00 0.00 1070.00 211.00" xmlns="http://www.w3.org/2000/svg" xmlns:xlink="http://www.w3.org/1999/xlink">
<g id="graph0" class="graph" transform="scale(1 1) rotate(0) translate(4 207)">
<title>dependencies</title>
<polygon fill="#ffffff" stroke="transparent" points="-4,4 -4,-207 1066,-207 1066,4 -4,4"/>
<text text-anchor="start" x="510.0091" y="-42.4" font-family="sans-serif" font-weight="bold" font-size="14.00" fill="#000000">Legend</text>
<polygon fill="#ffffb3" stroke="transparent" points="297,-10 297,-30 317,-30 317,-10 297,-10"/>
<text text-anchor="start" x="320.629" y="-15.4" font-family="sans-serif" font-size="14.00" fill="#000000"> &#160;Declarations</text>
<polygon fill="#8dd3c7" stroke="transparent" points="410,-10 410,-30 430,-30 430,-10 410,-10"/>
<text text-anchor="start" x="433.7251" y="-15.4" font-family="sans-serif" font-size="14.00" fill="#000000"> &#160;Module</text>
<polygon fill="#80b1d3" stroke="transparent" points="496,-10 496,-30 516,-30 516,-10 496,-10"/>
<text text-anchor="start" x="519.7812" y="-15.4" font-family="sans-serif" font-size="14.00" fill="#000000"> &#160;Bootstrap</text>
<polygon fill="#fdb462" stroke="transparent" points="593,-10 593,-30 613,-30 613,-10 593,-10"/>
<text text-anchor="start" x="616.6732" y="-15.4" font-family="sans-serif" font-size="14.00" fill="#000000"> &#160;Providers</text>
<polygon fill="#fb8072" stroke="transparent" points="689,-10 689,-30 709,-30 709,-10 689,-10"/>
<text text-anchor="start" x="712.7258" y="-15.4" font-family="sans-serif" font-size="14.00" fill="#000000"> &#160;Exports</text>
<g id="clust1" class="cluster">
<title>cluster_TransportsModule</title>
<polygon fill="none" stroke="#000000" stroke-dasharray="1,5" points="8,-70 8,-195 1054,-195 1054,-70 8,-70"/>
</g>
<g id="clust2" class="cluster">
<title>cluster_TransportsModule_declarations</title>
<polygon fill="none" stroke="#000000" points="712,-78 712,-130 1046,-130 1046,-78 712,-78"/>
</g>
<g id="clust5" class="cluster">
<title>cluster_TransportsModule_imports</title>
<polygon fill="none" stroke="#000000" points="408,-78 408,-130 704,-130 704,-78 408,-78"/>
</g>
<g id="clust8" class="cluster">
<title>cluster_TransportsModule_providers</title>
<polygon fill="none" stroke="#000000" points="16,-78 16,-130 400,-130 400,-78 16,-78"/>
</g>
<!-- TransportsPageComponent -->
<g id="node1" class="node">
<title>TransportsPageComponent</title>
<polygon fill="#ffffb3" stroke="#000000" points="1038.4129,-122 869.5871,-122 869.5871,-86 1038.4129,-86 1038.4129,-122"/>
<text text-anchor="middle" x="954" y="-99.8" font-family="Times,serif" font-size="14.00" fill="#000000">TransportsPageComponent</text>
</g>
<!-- TransportsModule -->
<g id="node3" class="node">
<title>TransportsModule</title>
<polygon fill="#8dd3c7" stroke="#000000" points="631.9187,-187 628.9187,-191 607.9187,-191 604.9187,-187 512.0813,-187 512.0813,-151 631.9187,-151 631.9187,-187"/>
<text text-anchor="middle" x="572" y="-164.8" font-family="Times,serif" font-size="14.00" fill="#000000">TransportsModule</text>
</g>
<!-- TransportsPageComponent&#45;&gt;TransportsModule -->
<g id="edge1" class="edge">
<title>TransportsPageComponent&#45;&gt;TransportsModule</title>
<path fill="none" stroke="#000000" d="M954,-122.2843C954,-143.3211 954,-175 954,-175 954,-175 642.1077,-175 642.1077,-175"/>
<polygon fill="#000000" stroke="#000000" points="642.1078,-171.5001 632.1077,-175 642.1077,-178.5001 642.1078,-171.5001"/>
</g>
<!-- CalendarComponent -->
<g id="node2" class="node">
<title>CalendarComponent</title>
<polygon fill="#ffffb3" stroke="#000000" points="851.8641,-122 720.1359,-122 720.1359,-86 851.8641,-86 851.8641,-122"/>
<text text-anchor="middle" x="786" y="-99.8" font-family="Times,serif" font-size="14.00" fill="#000000">CalendarComponent</text>
</g>
<!-- CalendarComponent&#45;&gt;TransportsModule -->
<g id="edge2" class="edge">
<title>CalendarComponent&#45;&gt;TransportsModule</title>
<path fill="none" stroke="#000000" d="M786,-122.0225C786,-139.3734 786,-163 786,-163 786,-163 641.8955,-163 641.8955,-163"/>
<polygon fill="#000000" stroke="#000000" points="641.8955,-159.5001 631.8955,-163 641.8955,-166.5001 641.8955,-159.5001"/>
</g>
<!-- SharedModule -->
<g id="node4" class="node">
<title>SharedModule</title>
<polygon fill="#8dd3c7" stroke="#000000" points="696.4231,-122 693.4231,-126 672.4231,-126 669.4231,-122 597.5769,-122 597.5769,-86 696.4231,-86 696.4231,-122"/>
<text text-anchor="middle" x="647" y="-99.8" font-family="Times,serif" font-size="14.00" fill="#000000">SharedModule</text>
</g>
<!-- SharedModule&#45;&gt;TransportsModule -->
<g id="edge3" class="edge">
<title>SharedModule&#45;&gt;TransportsModule</title>
<path fill="none" stroke="#000000" d="M614.749,-122.1061C614.749,-122.1061 614.749,-140.991 614.749,-140.991"/>
<polygon fill="#000000" stroke="#000000" points="611.249,-140.9909 614.749,-150.991 618.249,-140.991 611.249,-140.9909"/>
</g>
<!-- TransportsRoutingModule -->
<g id="node5" class="node">
<title>TransportsRoutingModule</title>
<polygon fill="#8dd3c7" stroke="#000000" points="580.0365,-122 577.0365,-126 556.0365,-126 553.0365,-122 415.9635,-122 415.9635,-86 580.0365,-86 580.0365,-122"/>
<text text-anchor="middle" x="498" y="-99.8" font-family="Times,serif" font-size="14.00" fill="#000000">TransportsRoutingModule</text>
</g>
<!-- TransportsRoutingModule&#45;&gt;TransportsModule -->
<g id="edge4" class="edge">
<title>TransportsRoutingModule&#45;&gt;TransportsModule</title>
<path fill="none" stroke="#000000" d="M546.2795,-122.1061C546.2795,-122.1061 546.2795,-140.991 546.2795,-140.991"/>
<polygon fill="#000000" stroke="#000000" points="542.7795,-140.9909 546.2795,-150.991 549.7795,-140.991 542.7795,-140.9909"/>
</g>
<!-- CustomDateFormatter -->
<g id="node6" class="node">
<title>CustomDateFormatter</title>
<ellipse fill="#fdb462" stroke="#000000" cx="295" cy="-104" rx="97.2857" ry="18"/>
<text text-anchor="middle" x="295" y="-99.8" font-family="Times,serif" font-size="14.00" fill="#000000">CustomDateFormatter</text>
</g>
<!-- CustomDateFormatter&#45;&gt;TransportsModule -->
<g id="edge5" class="edge">
<title>CustomDateFormatter&#45;&gt;TransportsModule</title>
<path fill="none" stroke="#000000" d="M295,-122.0225C295,-139.3734 295,-163 295,-163 295,-163 502.2362,-163 502.2362,-163"/>
<polygon fill="#000000" stroke="#000000" points="502.2362,-166.5001 512.2362,-163 502.2361,-159.5001 502.2362,-166.5001"/>
</g>
<!-- TransportService -->
<g id="node7" class="node">
<title>TransportService</title>
<ellipse fill="#fdb462" stroke="#000000" cx="102" cy="-104" rx="77.5646" ry="18"/>
<text text-anchor="middle" x="102" y="-99.8" font-family="Times,serif" font-size="14.00" fill="#000000">TransportService</text>
</g>
<!-- TransportService&#45;&gt;TransportsModule -->
<g id="edge6" class="edge">
<title>TransportService&#45;&gt;TransportsModule</title>
<path fill="none" stroke="#000000" d="M102,-122.2843C102,-143.3211 102,-175 102,-175 102,-175 501.9968,-175 501.9968,-175"/>
<polygon fill="#000000" stroke="#000000" points="501.9968,-178.5001 511.9968,-175 501.9967,-171.5001 501.9968,-178.5001"/>
</g>
</g>
</svg>
