<?xml version="1.0" encoding="UTF-8" standalone="no"?>
<!DOCTYPE svg PUBLIC "-//W3C//DTD SVG 1.1//EN"
 "http://www.w3.org/Graphics/SVG/1.1/DTD/svg11.dtd">
<!-- Generated by graphviz version 2.40.1 (20161225.0304)
 -->
<!-- Title: dependencies Pages: 1 -->
<svg width="903pt" height="284pt"
 viewBox="0.00 0.00 903.00 284.00" xmlns="http://www.w3.org/2000/svg" xmlns:xlink="http://www.w3.org/1999/xlink">
<g id="graph0" class="graph" transform="scale(1 1) rotate(0) translate(4 280)">
<title>dependencies</title>
<polygon fill="#ffffff" stroke="transparent" points="-4,4 -4,-280 899,-280 899,4 -4,4"/>
<text text-anchor="start" x="426.5091" y="-42.4" font-family="sans-serif" font-weight="bold" font-size="14.00" fill="#000000">Legend</text>
<polygon fill="#ffffb3" stroke="transparent" points="213.5,-10 213.5,-30 233.5,-30 233.5,-10 213.5,-10"/>
<text text-anchor="start" x="237.129" y="-15.4" font-family="sans-serif" font-size="14.00" fill="#000000"> &#160;Declarations</text>
<polygon fill="#8dd3c7" stroke="transparent" points="326.5,-10 326.5,-30 346.5,-30 346.5,-10 326.5,-10"/>
<text text-anchor="start" x="350.2251" y="-15.4" font-family="sans-serif" font-size="14.00" fill="#000000"> &#160;Module</text>
<polygon fill="#80b1d3" stroke="transparent" points="412.5,-10 412.5,-30 432.5,-30 432.5,-10 412.5,-10"/>
<text text-anchor="start" x="436.2812" y="-15.4" font-family="sans-serif" font-size="14.00" fill="#000000"> &#160;Bootstrap</text>
<polygon fill="#fdb462" stroke="transparent" points="509.5,-10 509.5,-30 529.5,-30 529.5,-10 509.5,-10"/>
<text text-anchor="start" x="533.1732" y="-15.4" font-family="sans-serif" font-size="14.00" fill="#000000"> &#160;Providers</text>
<polygon fill="#fb8072" stroke="transparent" points="605.5,-10 605.5,-30 625.5,-30 625.5,-10 605.5,-10"/>
<text text-anchor="start" x="629.2258" y="-15.4" font-family="sans-serif" font-size="14.00" fill="#000000"> &#160;Exports</text>
<g id="clust1" class="cluster">
<title>cluster_MainModule</title>
<polygon fill="none" stroke="#000000" stroke-dasharray="1,5" points="8,-70 8,-268 887,-268 887,-70 8,-70"/>
</g>
<g id="clust2" class="cluster">
<title>cluster_MainModule_declarations</title>
<polygon fill="none" stroke="#000000" points="138,-78 138,-130 879,-130 879,-78 138,-78"/>
</g>
<g id="clust8" class="cluster">
<title>cluster_MainModule_imports</title>
<polygon fill="none" stroke="#000000" points="16,-78 16,-130 130,-130 130,-78 16,-78"/>
</g>
<g id="clust9" class="cluster">
<title>cluster_MainModule_exports</title>
<polygon fill="none" stroke="#000000" points="68,-208 68,-260 826,-260 826,-208 68,-208"/>
</g>
<!-- NavItemComponent -->
<g id="node1" class="node">
<title>NavItemComponent</title>
<polygon fill="#ffffb3" stroke="#000000" points="871.3104,-122 740.6896,-122 740.6896,-86 871.3104,-86 871.3104,-122"/>
<text text-anchor="middle" x="806" y="-99.8" font-family="Times,serif" font-size="14.00" fill="#000000">NavItemComponent</text>
</g>
<!-- MainModule -->
<g id="node6" class="node">
<title>MainModule</title>
<polygon fill="#8dd3c7" stroke="#000000" points="498.5997,-187 495.5997,-191 474.5997,-191 471.5997,-187 409.4003,-187 409.4003,-151 498.5997,-151 498.5997,-187"/>
<text text-anchor="middle" x="454" y="-164.8" font-family="Times,serif" font-size="14.00" fill="#000000">MainModule</text>
</g>
<!-- NavItemComponent&#45;&gt;MainModule -->
<g id="edge1" class="edge">
<title>NavItemComponent&#45;&gt;MainModule</title>
<path fill="none" stroke="#000000" d="M779.375,-122.2667C779.375,-140.5552 779.375,-166 779.375,-166 779.375,-166 508.5598,-166 508.5598,-166"/>
<polygon fill="#000000" stroke="#000000" points="508.5598,-162.5001 498.5598,-166 508.5597,-169.5001 508.5598,-162.5001"/>
</g>
<!-- ToolbarComponent -->
<g id="node2" class="node">
<title>ToolbarComponent</title>
<polygon fill="#ffffb3" stroke="#000000" points="722.6513,-122 597.3487,-122 597.3487,-86 722.6513,-86 722.6513,-122"/>
<text text-anchor="middle" x="660" y="-99.8" font-family="Times,serif" font-size="14.00" fill="#000000">ToolbarComponent</text>
</g>
<!-- ToolbarComponent&#45;&gt;MainModule -->
<g id="edge2" class="edge">
<title>ToolbarComponent&#45;&gt;MainModule</title>
<path fill="none" stroke="#000000" d="M631.875,-122.0091C631.875,-138.0494 631.875,-159 631.875,-159 631.875,-159 508.8854,-159 508.8854,-159"/>
<polygon fill="#000000" stroke="#000000" points="508.8854,-155.5001 498.8854,-159 508.8853,-162.5001 508.8854,-155.5001"/>
</g>
<!-- SidenavComponent -->
<g id="node3" class="node">
<title>SidenavComponent</title>
<polygon fill="#ffffb3" stroke="#000000" points="579.4356,-122 452.5644,-122 452.5644,-86 579.4356,-86 579.4356,-122"/>
<text text-anchor="middle" x="516" y="-99.8" font-family="Times,serif" font-size="14.00" fill="#000000">SidenavComponent</text>
</g>
<!-- SidenavComponent&#45;&gt;MainModule -->
<g id="edge3" class="edge">
<title>SidenavComponent&#45;&gt;MainModule</title>
<path fill="none" stroke="#000000" d="M475.6662,-122.1061C475.6662,-122.1061 475.6662,-140.991 475.6662,-140.991"/>
<polygon fill="#000000" stroke="#000000" points="472.1663,-140.9909 475.6662,-150.991 479.1663,-140.991 472.1663,-140.9909"/>
</g>
<!-- AppComponent -->
<g id="node4" class="node">
<title>AppComponent</title>
<polygon fill="#ffffb3" stroke="#000000" points="434.9399,-122 329.0601,-122 329.0601,-86 434.9399,-86 434.9399,-122"/>
<text text-anchor="middle" x="382" y="-99.8" font-family="Times,serif" font-size="14.00" fill="#000000">AppComponent</text>
</g>
<!-- AppComponent&#45;&gt;MainModule -->
<g id="edge4" class="edge">
<title>AppComponent&#45;&gt;MainModule</title>
<path fill="none" stroke="#000000" d="M422.0849,-122.1061C422.0849,-122.1061 422.0849,-140.991 422.0849,-140.991"/>
<polygon fill="#000000" stroke="#000000" points="418.5849,-140.9909 422.0849,-150.991 425.5849,-140.991 418.5849,-140.9909"/>
</g>
<!-- NotFoundPageComponent -->
<g id="node5" class="node">
<title>NotFoundPageComponent</title>
<polygon fill="#ffffb3" stroke="#000000" points="311.8243,-122 146.1757,-122 146.1757,-86 311.8243,-86 311.8243,-122"/>
<text text-anchor="middle" x="229" y="-99.8" font-family="Times,serif" font-size="14.00" fill="#000000">NotFoundPageComponent</text>
</g>
<!-- NotFoundPageComponent&#45;&gt;MainModule -->
<g id="edge5" class="edge">
<title>NotFoundPageComponent&#45;&gt;MainModule</title>
<path fill="none" stroke="#000000" d="M287.0963,-122.0091C287.0963,-138.0494 287.0963,-159 287.0963,-159 287.0963,-159 399.2729,-159 399.2729,-159"/>
<polygon fill="#000000" stroke="#000000" points="399.2729,-162.5001 409.2729,-159 399.2728,-155.5001 399.2729,-162.5001"/>
</g>
<!-- NavItemComponent  -->
<g id="node8" class="node">
<title>NavItemComponent </title>
<polygon fill="#fb8072" stroke="#000000" points="817.8101,-252 684.1899,-252 684.1899,-216 817.8101,-216 817.8101,-252"/>
<text text-anchor="middle" x="751" y="-229.8" font-family="Times,serif" font-size="14.00" fill="#000000">NavItemComponent </text>
</g>
<!-- MainModule&#45;&gt;NavItemComponent  -->
<g id="edge7" class="edge">
<title>MainModule&#45;&gt;NavItemComponent </title>
<path fill="none" stroke="#000000" stroke-dasharray="5,2" d="M498.5985,-173C570.3521,-173 703.4602,-173 703.4602,-173 703.4602,-173 703.4602,-205.698 703.4602,-205.698"/>
<polygon fill="#000000" stroke="#000000" points="699.9603,-205.698 703.4602,-215.698 706.9603,-205.698 699.9603,-205.698"/>
</g>
<!-- ToolbarComponent  -->
<g id="node9" class="node">
<title>ToolbarComponent </title>
<polygon fill="#fb8072" stroke="#000000" points="666.6509,-252 537.3491,-252 537.3491,-216 666.6509,-216 666.6509,-252"/>
<text text-anchor="middle" x="602" y="-229.8" font-family="Times,serif" font-size="14.00" fill="#000000">ToolbarComponent </text>
</g>
<!-- MainModule&#45;&gt;ToolbarComponent  -->
<g id="edge8" class="edge">
<title>MainModule&#45;&gt;ToolbarComponent </title>
<path fill="none" stroke="#000000" stroke-dasharray="5,2" d="M498.8469,-180C527.1215,-180 558.321,-180 558.321,-180 558.321,-180 558.321,-205.7181 558.321,-205.7181"/>
<polygon fill="#000000" stroke="#000000" points="554.8211,-205.718 558.321,-215.7181 561.8211,-205.7181 554.8211,-205.718"/>
</g>
<!-- SidenavComponent  -->
<g id="node10" class="node">
<title>SidenavComponent </title>
<polygon fill="#fb8072" stroke="#000000" points="518.9348,-252 389.0652,-252 389.0652,-216 518.9348,-216 518.9348,-252"/>
<text text-anchor="middle" x="454" y="-229.8" font-family="Times,serif" font-size="14.00" fill="#000000">SidenavComponent </text>
</g>
<!-- MainModule&#45;&gt;SidenavComponent  -->
<g id="edge9" class="edge">
<title>MainModule&#45;&gt;SidenavComponent </title>
<path fill="none" stroke="#000000" stroke-dasharray="5,2" d="M454,-187.1061C454,-187.1061 454,-205.991 454,-205.991"/>
<polygon fill="#000000" stroke="#000000" points="450.5001,-205.9909 454,-215.991 457.5001,-205.991 450.5001,-205.9909"/>
</g>
<!-- AppComponent  -->
<g id="node11" class="node">
<title>AppComponent </title>
<polygon fill="#fb8072" stroke="#000000" points="371.439,-252 262.561,-252 262.561,-216 371.439,-216 371.439,-252"/>
<text text-anchor="middle" x="317" y="-229.8" font-family="Times,serif" font-size="14.00" fill="#000000">AppComponent </text>
</g>
<!-- MainModule&#45;&gt;AppComponent  -->
<g id="edge10" class="edge">
<title>MainModule&#45;&gt;AppComponent </title>
<path fill="none" stroke="#000000" stroke-dasharray="5,2" d="M409.1513,-180C381.1454,-180 350.375,-180 350.375,-180 350.375,-180 350.375,-205.7181 350.375,-205.7181"/>
<polygon fill="#000000" stroke="#000000" points="346.8751,-205.718 350.375,-215.7181 353.8751,-205.7181 346.8751,-205.718"/>
</g>
<!-- NotFoundPageComponent  -->
<g id="node12" class="node">
<title>NotFoundPageComponent </title>
<polygon fill="#fb8072" stroke="#000000" points="244.3241,-252 75.6759,-252 75.6759,-216 244.3241,-216 244.3241,-252"/>
<text text-anchor="middle" x="160" y="-229.8" font-family="Times,serif" font-size="14.00" fill="#000000">NotFoundPageComponent </text>
</g>
<!-- MainModule&#45;&gt;NotFoundPageComponent  -->
<g id="edge11" class="edge">
<title>MainModule&#45;&gt;NotFoundPageComponent </title>
<path fill="none" stroke="#000000" stroke-dasharray="5,2" d="M409.2462,-173C335.2244,-173 195.375,-173 195.375,-173 195.375,-173 195.375,-205.698 195.375,-205.698"/>
<polygon fill="#000000" stroke="#000000" points="191.8751,-205.698 195.375,-215.698 198.8751,-205.698 191.8751,-205.698"/>
</g>
<!-- SharedModule -->
<g id="node7" class="node">
<title>SharedModule</title>
<polygon fill="#8dd3c7" stroke="#000000" points="122.4231,-122 119.4231,-126 98.4231,-126 95.4231,-122 23.5769,-122 23.5769,-86 122.4231,-86 122.4231,-122"/>
<text text-anchor="middle" x="73" y="-99.8" font-family="Times,serif" font-size="14.00" fill="#000000">SharedModule</text>
</g>
<!-- SharedModule&#45;&gt;MainModule -->
<g id="edge6" class="edge">
<title>SharedModule&#45;&gt;MainModule</title>
<path fill="none" stroke="#000000" d="M98.8996,-122.2667C98.8996,-140.5552 98.8996,-166 98.8995,-166 98.8995,-166 399.3858,-166 399.3858,-166"/>
<polygon fill="#000000" stroke="#000000" points="399.3859,-169.5001 409.3858,-166 399.3858,-162.5001 399.3859,-169.5001"/>
</g>
</g>
</svg>
