<?xml version="1.0" encoding="UTF-8" standalone="no"?>
<!DOCTYPE svg PUBLIC "-//W3C//DTD SVG 1.1//EN"
 "http://www.w3.org/Graphics/SVG/1.1/DTD/svg11.dtd">
<!-- Generated by graphviz version 2.40.1 (20161225.0304)
 -->
<!-- Title: dependencies Pages: 1 -->
<svg width="534pt" height="284pt"
 viewBox="0.00 0.00 534.00 284.00" xmlns="http://www.w3.org/2000/svg" xmlns:xlink="http://www.w3.org/1999/xlink">
<g id="graph0" class="graph" transform="scale(1 1) rotate(0) translate(4 280)">
<title>dependencies</title>
<polygon fill="#ffffff" stroke="transparent" points="-4,4 -4,-280 530,-280 530,4 -4,4"/>
<text text-anchor="start" x="242.0091" y="-42.4" font-family="sans-serif" font-weight="bold" font-size="14.00" fill="#000000">Legend</text>
<polygon fill="#ffffb3" stroke="transparent" points="29,-10 29,-30 49,-30 49,-10 29,-10"/>
<text text-anchor="start" x="52.629" y="-15.4" font-family="sans-serif" font-size="14.00" fill="#000000"> &#160;Declarations</text>
<polygon fill="#8dd3c7" stroke="transparent" points="142,-10 142,-30 162,-30 162,-10 142,-10"/>
<text text-anchor="start" x="165.7251" y="-15.4" font-family="sans-serif" font-size="14.00" fill="#000000"> &#160;Module</text>
<polygon fill="#80b1d3" stroke="transparent" points="228,-10 228,-30 248,-30 248,-10 228,-10"/>
<text text-anchor="start" x="251.7812" y="-15.4" font-family="sans-serif" font-size="14.00" fill="#000000"> &#160;Bootstrap</text>
<polygon fill="#fdb462" stroke="transparent" points="325,-10 325,-30 345,-30 345,-10 325,-10"/>
<text text-anchor="start" x="348.6732" y="-15.4" font-family="sans-serif" font-size="14.00" fill="#000000"> &#160;Providers</text>
<polygon fill="#fb8072" stroke="transparent" points="421,-10 421,-30 441,-30 441,-10 421,-10"/>
<text text-anchor="start" x="444.7258" y="-15.4" font-family="sans-serif" font-size="14.00" fill="#000000"> &#160;Exports</text>
<g id="clust1" class="cluster">
<title>cluster_TestingHelperModule</title>
<polygon fill="none" stroke="#000000" stroke-dasharray="1,5" points="8,-70 8,-268 518,-268 518,-70 8,-70"/>
</g>
<g id="clust2" class="cluster">
<title>cluster_TestingHelperModule_declarations</title>
<polygon fill="none" stroke="#000000" points="138,-78 138,-130 510,-130 510,-78 138,-78"/>
</g>
<g id="clust5" class="cluster">
<title>cluster_TestingHelperModule_imports</title>
<polygon fill="none" stroke="#000000" points="16,-78 16,-130 130,-130 130,-78 16,-78"/>
</g>
<g id="clust6" class="cluster">
<title>cluster_TestingHelperModule_exports</title>
<polygon fill="none" stroke="#000000" points="177,-208 177,-260 295,-260 295,-208 177,-208"/>
</g>
<!-- RouterLinkStubDirective -->
<g id="node1" class="node">
<title>RouterLinkStubDirective</title>
<polygon fill="#ffffb3" stroke="#000000" points="502.3019,-122 343.6981,-122 343.6981,-86 502.3019,-86 502.3019,-122"/>
<text text-anchor="middle" x="423" y="-99.8" font-family="Times,serif" font-size="14.00" fill="#000000">RouterLinkStubDirective</text>
</g>
<!-- TestingHelperModule -->
<g id="node3" class="node">
<title>TestingHelperModule</title>
<polygon fill="#8dd3c7" stroke="#000000" points="305.6303,-187 302.6303,-191 281.6303,-191 278.6303,-187 166.3697,-187 166.3697,-151 305.6303,-151 305.6303,-187"/>
<text text-anchor="middle" x="236" y="-164.8" font-family="Times,serif" font-size="14.00" fill="#000000">TestingHelperModule</text>
</g>
<!-- RouterLinkStubDirective&#45;&gt;TestingHelperModule -->
<g id="edge1" class="edge">
<title>RouterLinkStubDirective&#45;&gt;TestingHelperModule</title>
<path fill="none" stroke="#000000" d="M423,-122.1061C423,-141.3391 423,-169 423,-169 423,-169 315.6319,-169 315.6319,-169"/>
<polygon fill="#000000" stroke="#000000" points="315.6319,-165.5001 305.6319,-169 315.6319,-172.5001 315.6319,-165.5001"/>
</g>
<!-- RouterOutletStubComponent -->
<g id="node2" class="node">
<title>RouterOutletStubComponent</title>
<polygon fill="#ffffb3" stroke="#000000" points="326.101,-122 145.899,-122 145.899,-86 326.101,-86 326.101,-122"/>
<text text-anchor="middle" x="236" y="-99.8" font-family="Times,serif" font-size="14.00" fill="#000000">RouterOutletStubComponent</text>
</g>
<!-- RouterOutletStubComponent&#45;&gt;TestingHelperModule -->
<g id="edge2" class="edge">
<title>RouterOutletStubComponent&#45;&gt;TestingHelperModule</title>
<path fill="none" stroke="#000000" d="M236,-122.1061C236,-122.1061 236,-140.991 236,-140.991"/>
<polygon fill="#000000" stroke="#000000" points="232.5001,-140.9909 236,-150.991 239.5001,-140.991 232.5001,-140.9909"/>
</g>
<!-- SharedModule  -->
<g id="node5" class="node">
<title>SharedModule </title>
<polygon fill="#fb8072" stroke="#000000" points="286.9222,-252 185.0778,-252 185.0778,-216 286.9222,-216 286.9222,-252"/>
<text text-anchor="middle" x="236" y="-229.8" font-family="Times,serif" font-size="14.00" fill="#000000">SharedModule </text>
</g>
<!-- TestingHelperModule&#45;&gt;SharedModule  -->
<g id="edge4" class="edge">
<title>TestingHelperModule&#45;&gt;SharedModule </title>
<path fill="none" stroke="#000000" stroke-dasharray="5,2" d="M236,-187.1061C236,-187.1061 236,-205.991 236,-205.991"/>
<polygon fill="#000000" stroke="#000000" points="232.5001,-205.9909 236,-215.991 239.5001,-205.991 232.5001,-205.9909"/>
</g>
<!-- SharedModule -->
<g id="node4" class="node">
<title>SharedModule</title>
<polygon fill="#8dd3c7" stroke="#000000" points="122.4231,-122 119.4231,-126 98.4231,-126 95.4231,-122 23.5769,-122 23.5769,-86 122.4231,-86 122.4231,-122"/>
<text text-anchor="middle" x="73" y="-99.8" font-family="Times,serif" font-size="14.00" fill="#000000">SharedModule</text>
</g>
<!-- SharedModule&#45;&gt;TestingHelperModule -->
<g id="edge3" class="edge">
<title>SharedModule&#45;&gt;TestingHelperModule</title>
<path fill="none" stroke="#000000" d="M73,-122.1061C73,-141.3391 73,-169 73,-169 73,-169 155.9274,-169 155.9274,-169"/>
<polygon fill="#000000" stroke="#000000" points="155.9274,-172.5001 165.9274,-169 155.9273,-165.5001 155.9274,-172.5001"/>
</g>
</g>
</svg>
